<?xml version="1.0" encoding="UTF-8"?><!-- Generator: Adobe Illustrator 12.0.0, SVG Export Plug-In . SVG Version: 6.00 Build 51448)  --><!DOCTYPE svg PUBLIC "-//W3C//DTD SVG 1.1//EN" "http://www.w3.org/Graphics/SVG/1.1/DTD/svg11.dtd">
<svg xmlns="http://www.w3.org/2000/svg" xmlns:xlink="http://www.w3.org/1999/xlink" version="1.1" width="339.104" height="340.834" viewBox="0 0 339.104 340.834" overflow="visible" enable-background="new 0 0 339.104 340.834" xml:space="preserve" preserveAspectRatio="xMidYMid meet" zoomAndPan="magnify" contentScriptType="application/ecmascript" contentStyleType="text/css">
<g id="outline">
	
		<rect x="0.25" y="0.25" fill="none" stroke="#000000" stroke-width="0.5" stroke-linecap="round" stroke-linejoin="round" width="338.604" height="339.949"/>
	<linearGradient id="XMLID_3_" gradientUnits="userSpaceOnUse" x1="0.583" y1="149.4585" x2="337.8506" y2="149.4585" xlink:type="simple" xlink:show="other" xlink:actuate="onLoad">
		<stop offset="0" style="stop-color:#FFFFFF"/>
		<stop offset="0.5787" style="stop-color:#CCD7E9"/>
	</linearGradient>
	
		<line fill="url(#XMLID_3_)" stroke="#000000" stroke-width="0.5" stroke-linecap="round" stroke-linejoin="round" x1="0.583" y1="149.458" x2="337.851" y2="149.458"/>
	<linearGradient id="XMLID_4_" gradientUnits="userSpaceOnUse" x1="118.9224" y1="170.6099" x2="118.9224" y2="170.6099" xlink:type="simple" xlink:show="other" xlink:actuate="onLoad">
		<stop offset="0" style="stop-color:#FFFFFF"/>
		<stop offset="0.5787" style="stop-color:#CCD7E9"/>
	</linearGradient>
	
		<line fill="url(#XMLID_4_)" stroke="#000000" stroke-width="0.5" stroke-linecap="round" stroke-linejoin="round" x1="118.922" y1="0.635" x2="118.922" y2="340.584"/>
</g>
<g id="arrows">
	<g>
		
			<line stroke="#000000" stroke-width="0.5" stroke-linecap="round" stroke-linejoin="round" x1="35.243" y1="43.706" x2="53.317" y2="106.004"/>
		<polygon stroke="#000000" stroke-width="0.5" stroke-linecap="round" stroke-linejoin="round" points="52.71,103.446     54.79,102.814 54.645,106.073 54.499,109.333 52.565,106.705 50.63,104.078   "/>
	</g>
	<g>
		
			<line stroke="#000000" stroke-width="0.5" stroke-linecap="round" stroke-linejoin="round" x1="85.747" y1="43.513" x2="67.672" y2="105.812"/>
		<polygon stroke="#000000" stroke-width="0.5" stroke-linecap="round" stroke-linejoin="round" points="68.28,103.253     66.2,102.621 66.345,105.88 66.491,109.14 68.425,106.513 70.359,103.885   "/>
	</g>
	<g>
		
			<line stroke="#000000" stroke-width="0.5" stroke-linecap="round" stroke-linejoin="round" x1="36.397" y1="187.338" x2="54.471" y2="249.637"/>
		<polygon stroke="#000000" stroke-width="0.5" stroke-linecap="round" stroke-linejoin="round" points="53.864,247.079     55.943,246.446 55.798,249.706 55.653,252.965 53.718,250.337 51.784,247.71   "/>
	</g>
	<g>
		
			<line stroke="#000000" stroke-width="0.5" stroke-linecap="round" stroke-linejoin="round" x1="86.9" y1="187.146" x2="68.826" y2="249.444"/>
		<polygon stroke="#000000" stroke-width="0.5" stroke-linecap="round" stroke-linejoin="round" points="69.433,246.885     67.354,246.253 67.499,249.513 67.644,252.772 69.579,250.145 71.513,247.518   "/>
	</g>
	<g>
		
			<line stroke="#000000" stroke-width="0.5" stroke-linecap="round" stroke-linejoin="round" x1="63.893" y1="277.037" x2="40.989" y2="296.501"/>
		<polygon stroke="#000000" stroke-width="0.5" stroke-linecap="round" stroke-linejoin="round" points="42.905,294.7     41.518,293.027 39.843,295.827 38.169,298.627 41.231,297.5 44.293,296.375   "/>
	</g>
	<g>
		
			<line stroke="#000000" stroke-width="0.5" stroke-linecap="round" stroke-linejoin="round" x1="59.224" y1="276.749" x2="82.127" y2="296.213"/>
		<polygon stroke="#000000" stroke-width="0.5" stroke-linecap="round" stroke-linejoin="round" points="80.211,294.412     81.599,292.739 83.273,295.539 84.947,298.339 81.885,297.212 78.823,296.085   "/>
	</g>
	<g>
		
			<line stroke="#000000" stroke-width="0.5" stroke-linecap="round" stroke-linejoin="round" x1="228.483" y1="277.806" x2="205.58" y2="297.271"/>
		<polygon stroke="#000000" stroke-width="0.5" stroke-linecap="round" stroke-linejoin="round" points="207.496,295.469     206.108,293.796 204.435,296.596 202.761,299.397 205.821,298.27 208.884,297.144   "/>
	</g>
	<g>
		
			<line stroke="#000000" stroke-width="0.5" stroke-linecap="round" stroke-linejoin="round" x1="223.815" y1="277.518" x2="246.719" y2="296.983"/>
		<polygon stroke="#000000" stroke-width="0.5" stroke-linecap="round" stroke-linejoin="round" points="244.803,295.181     246.189,293.508 247.864,296.308 249.538,299.109 246.478,297.982 243.415,296.855   "/>
	</g>
	<g>
		
			<line stroke="#000000" stroke-width="0.5" stroke-linecap="round" stroke-linejoin="round" x1="255.08" y1="84.689" x2="236.914" y2="108.635"/>
		<polygon stroke="#000000" stroke-width="0.5" stroke-linecap="round" stroke-linejoin="round" points="238.396,106.463     236.681,105.128 235.65,108.223 234.619,111.32 237.365,109.559 240.111,107.798   "/>
	</g>
	<g>
		
			<line stroke="#000000" stroke-width="0.5" stroke-linecap="round" stroke-linejoin="round" x1="196.074" y1="84.407" x2="214.912" y2="107.829"/>
		<polygon stroke="#000000" stroke-width="0.5" stroke-linecap="round" stroke-linejoin="round" points="213.369,105.699     215.046,104.316 216.165,107.38 217.282,110.446 214.487,108.764 211.692,107.083   "/>
	</g>
	<g>
		
			<line stroke="#000000" stroke-width="0.5" stroke-linecap="round" stroke-linejoin="round" x1="255.08" y1="226.208" x2="236.914" y2="250.153"/>
		<polygon stroke="#000000" stroke-width="0.5" stroke-linecap="round" stroke-linejoin="round" points="238.396,247.981     236.681,246.647 235.65,249.741 234.619,252.837 237.365,251.077 240.111,249.317   "/>
	</g>
	<g>
		
			<line stroke="#000000" stroke-width="0.5" stroke-linecap="round" stroke-linejoin="round" x1="196.074" y1="228.233" x2="214.912" y2="251.654"/>
		<polygon stroke="#000000" stroke-width="0.5" stroke-linecap="round" stroke-linejoin="round" points="213.369,249.524     215.046,248.141 216.165,251.206 217.282,254.272 214.487,252.588 211.692,250.908   "/>
	</g>
	<g>
		
			<line stroke="#000000" stroke-width="0.5" stroke-linecap="round" stroke-linejoin="round" x1="199.654" y1="29.104" x2="199.654" y2="59.161"/>
		<polygon stroke="#000000" stroke-width="0.5" stroke-linecap="round" stroke-linejoin="round" points="199.786,56.535     201.961,56.508 200.91,59.598 199.86,62.687 198.737,59.624 197.612,56.562   "/>
	</g>
	<g>
		
			<line stroke="#000000" stroke-width="0.5" stroke-linecap="round" stroke-linejoin="round" x1="250.839" y1="29.104" x2="250.839" y2="59.161"/>
		<polygon stroke="#000000" stroke-width="0.5" stroke-linecap="round" stroke-linejoin="round" points="250.971,56.535     253.146,56.508 252.096,59.598 251.045,62.687 249.922,59.624 248.798,56.562   "/>
	</g>
	<g>
		
			<line stroke="#000000" stroke-width="0.5" stroke-linecap="round" stroke-linejoin="round" x1="279.646" y1="122.482" x2="249.588" y2="122.482"/>
		<polygon stroke="#000000" stroke-width="0.5" stroke-linecap="round" stroke-linejoin="round" points="252.214,122.614     252.241,124.789 249.151,123.739 246.063,122.689 249.125,121.565 252.187,120.441   "/>
	</g>
	<g>
		
			<line stroke="#000000" stroke-width="0.5" stroke-linecap="round" stroke-linejoin="round" x1="156.763" y1="41.015" x2="187.484" y2="62.253"/>
		<polygon stroke="#000000" stroke-width="0.5" stroke-linecap="round" stroke-linejoin="round" points="185.41,60.637     186.636,58.842 188.563,61.475 190.488,64.109 187.336,63.271 184.183,62.431   "/>
	</g>
	<g>
		
			<line stroke="#000000" stroke-width="0.5" stroke-linecap="round" stroke-linejoin="round" x1="292.588" y1="41.015" x2="261.867" y2="62.253"/>
		<polygon stroke="#000000" stroke-width="0.5" stroke-linecap="round" stroke-linejoin="round" points="263.941,60.637     262.716,58.842 260.789,61.475 258.863,64.109 262.016,63.271 265.169,62.431   "/>
	</g>
	<g>
		
			<line stroke="#000000" stroke-width="0.5" stroke-linecap="round" stroke-linejoin="round" x1="199.654" y1="172.929" x2="199.654" y2="202.986"/>
		<polygon stroke="#000000" stroke-width="0.5" stroke-linecap="round" stroke-linejoin="round" points="199.786,200.36     201.961,200.333 200.91,203.422 199.86,206.511 198.737,203.45 197.612,200.387   "/>
	</g>
	<g>
		
			<line stroke="#000000" stroke-width="0.5" stroke-linecap="round" stroke-linejoin="round" x1="249.839" y1="172.929" x2="249.839" y2="202.986"/>
		<polygon stroke="#000000" stroke-width="0.5" stroke-linecap="round" stroke-linejoin="round" points="249.971,200.36     252.146,200.333 251.096,203.422 250.045,206.511 248.922,203.45 247.798,200.387   "/>
	</g>
	<g>
		
			<line stroke="#000000" stroke-width="0.5" stroke-linecap="round" stroke-linejoin="round" x1="280.799" y1="267.461" x2="250.741" y2="267.461"/>
		<polygon stroke="#000000" stroke-width="0.5" stroke-linecap="round" stroke-linejoin="round" points="253.368,267.593     253.395,269.767 250.306,268.717 247.216,267.667 250.278,266.544 253.341,265.419   "/>
	</g>
	<g>
		
			<line stroke="#000000" stroke-width="0.5" stroke-linecap="round" stroke-linejoin="round" x1="156.763" y1="184.839" x2="187.484" y2="206.079"/>
		<polygon stroke="#000000" stroke-width="0.5" stroke-linecap="round" stroke-linejoin="round" points="185.41,204.461     186.636,202.667 188.563,205.3 190.488,207.934 187.336,207.095 184.183,206.257   "/>
	</g>
	<g>
		
			<line stroke="#000000" stroke-width="0.5" stroke-linecap="round" stroke-linejoin="round" x1="292.588" y1="184.839" x2="261.867" y2="206.079"/>
		<polygon stroke="#000000" stroke-width="0.5" stroke-linecap="round" stroke-linejoin="round" points="263.941,204.461     262.716,202.667 260.789,205.3 258.863,207.934 262.016,207.095 265.169,206.257   "/>
	</g>
</g>
<g id="ovals">
	
		<ellipse fill="#FFFFFF" stroke="#000000" stroke-width="0.5" stroke-linecap="round" stroke-linejoin="round" cx="36.012" cy="31.785" rx="20.958" ry="13.845"/>
	
		<ellipse fill="#FFFFFF" stroke="#000000" stroke-width="0.5" stroke-linecap="round" stroke-linejoin="round" cx="86.966" cy="31.785" rx="20.958" ry="13.845"/>
	
		<ellipse fill="#FFFFFF" stroke="#000000" stroke-width="0.5" stroke-linecap="round" stroke-linejoin="round" cx="60.816" cy="122.925" rx="20.958" ry="13.845"/>
	
		<ellipse fill="#FFFFFF" stroke="#000000" stroke-width="0.5" stroke-linecap="round" stroke-linejoin="round" cx="36.011" cy="313.281" rx="20.958" ry="13.845"/>
	
		<ellipse fill="#FFFFFF" stroke="#000000" stroke-width="0.5" stroke-linecap="round" stroke-linejoin="round" cx="87.35" cy="313.281" rx="20.958" ry="13.845"/>
	<path fill="#FFFFFF" stroke="#000000" stroke-width="0.5" stroke-linecap="round" stroke-linejoin="round" d="M220.216,313.281   c0,7.646-9.386,13.845-20.958,13.845c-11.575,0-20.96-6.198-20.96-13.845c0-7.646,9.385-13.845,20.96-13.845   C210.83,299.436,220.216,305.635,220.216,313.281z"/>
	<path fill="#FFFFFF" stroke="#000000" stroke-width="0.5" stroke-linecap="round" stroke-linejoin="round" d="M271.554,313.281   c0,7.646-9.385,13.845-20.957,13.845c-11.575,0-20.96-6.198-20.96-13.845c0-7.646,9.385-13.845,20.96-13.845   C262.169,299.436,271.554,305.635,271.554,313.281z"/>
	
		<ellipse fill="#FFFFFF" stroke="#000000" stroke-width="0.5" stroke-linecap="round" stroke-linejoin="round" cx="37.166" cy="175.417" rx="20.958" ry="13.845"/>
	
		<ellipse fill="#FFFFFF" stroke="#000000" stroke-width="0.5" stroke-linecap="round" stroke-linejoin="round" cx="88.12" cy="175.417" rx="20.958" ry="13.845"/>
	
		<ellipse fill="#FFFFFF" stroke="#000000" stroke-width="0.5" stroke-linecap="round" stroke-linejoin="round" cx="61.969" cy="266.557" rx="20.958" ry="13.845"/>
	
		<ellipse fill="#FFFFFF" stroke="#000000" stroke-width="0.5" stroke-linecap="round" stroke-linejoin="round" cx="149.072" cy="31.784" rx="20.958" ry="13.846"/>
	<path fill="#FFFFFF" stroke="#000000" stroke-width="0.5" stroke-linecap="round" stroke-linejoin="round" d="M220.216,31.784   c0,7.646-9.386,13.846-20.958,13.846c-11.575,0-20.96-6.199-20.96-13.846c0-7.645,9.385-13.844,20.96-13.844   C210.83,17.94,220.216,24.139,220.216,31.784z"/>
	
		<ellipse fill="#FFFFFF" stroke="#000000" stroke-width="0.5" stroke-linecap="round" stroke-linejoin="round" cx="251.172" cy="31.784" rx="20.959" ry="13.846"/>
	
		<ellipse fill="#FFFFFF" stroke="#000000" stroke-width="0.5" stroke-linecap="round" stroke-linejoin="round" cx="301.356" cy="31.784" rx="20.959" ry="13.846"/>
	<path fill="#FFFFFF" stroke="#000000" stroke-width="0.5" stroke-linecap="round" stroke-linejoin="round" d="M220.792,76.777   c0,7.646-9.385,13.845-20.957,13.845c-11.575,0-20.96-6.199-20.96-13.845c0-7.646,9.385-13.844,20.96-13.844   C211.407,62.933,220.792,69.132,220.792,76.777z"/>
	<path fill="#FFFFFF" stroke="#000000" stroke-width="0.5" stroke-linecap="round" stroke-linejoin="round" d="M270.977,76.777   c0,7.646-9.385,13.845-20.957,13.845c-11.575,0-20.96-6.199-20.96-13.845c0-7.646,9.385-13.844,20.96-13.844   C261.592,62.933,270.977,69.132,270.977,76.777z"/>
	<path fill="#FFFFFF" stroke="#000000" stroke-width="0.5" stroke-linecap="round" stroke-linejoin="round" d="M245.597,122.924   c0,7.646-9.386,13.845-20.958,13.845c-11.575,0-20.96-6.199-20.96-13.845c0-7.646,9.385-13.844,20.96-13.844   C236.211,109.08,245.597,115.279,245.597,122.924z"/>
	
		<ellipse fill="#FFFFFF" stroke="#000000" stroke-width="0.5" stroke-linecap="round" stroke-linejoin="round" cx="301.356" cy="122.924" rx="20.959" ry="13.845"/>
	
		<ellipse fill="#FFFFFF" stroke="#000000" stroke-width="0.5" stroke-linecap="round" stroke-linejoin="round" cx="149.072" cy="175.417" rx="20.958" ry="13.845"/>
	<path fill="#FFFFFF" stroke="#000000" stroke-width="0.5" stroke-linecap="round" stroke-linejoin="round" d="M220.216,175.417   c0,7.646-9.386,13.845-20.958,13.845c-11.575,0-20.96-6.198-20.96-13.845c0-7.646,9.385-13.844,20.96-13.844   C210.83,161.572,220.216,167.771,220.216,175.417z"/>
	
		<ellipse fill="#FFFFFF" stroke="#000000" stroke-width="0.5" stroke-linecap="round" stroke-linejoin="round" cx="251.172" cy="175.417" rx="20.959" ry="13.845"/>
	
		<ellipse fill="#FFFFFF" stroke="#000000" stroke-width="0.5" stroke-linecap="round" stroke-linejoin="round" cx="301.356" cy="175.417" rx="20.959" ry="13.845"/>
	<path fill="#FFFFFF" stroke="#000000" stroke-width="0.5" stroke-linecap="round" stroke-linejoin="round" d="M220.792,220.41   c0,7.646-9.385,13.846-20.957,13.846c-11.575,0-20.96-6.199-20.96-13.846c0-7.646,9.385-13.844,20.96-13.844   C211.407,206.566,220.792,212.764,220.792,220.41z"/>
	<path fill="#FFFFFF" stroke="#000000" stroke-width="0.5" stroke-linecap="round" stroke-linejoin="round" d="M270.977,220.41   c0,7.646-9.385,13.846-20.957,13.846c-11.575,0-20.96-6.199-20.96-13.846c0-7.646,9.385-13.844,20.96-13.844   C261.592,206.566,270.977,212.764,270.977,220.41z"/>
	<path fill="#FFFFFF" stroke="#000000" stroke-width="0.5" stroke-linecap="round" stroke-linejoin="round" d="M247.903,266.557   c0,7.646-9.385,13.845-20.957,13.845c-11.575,0-20.96-6.199-20.96-13.845s9.385-13.845,20.96-13.845   C238.519,252.712,247.903,258.912,247.903,266.557z"/>
	
		<ellipse fill="#FFFFFF" stroke="#000000" stroke-width="0.5" stroke-linecap="round" stroke-linejoin="round" cx="301.356" cy="266.557" rx="20.959" ry="13.845"/>
</g>
<g id="text">
	<rect x="21.915" y="28.583" fill="none" width="27" height="12.333"/>
	<text transform="matrix(1 0 0 1 28.9121 35.0449)" font-family="'Helvetica'" font-size="9">LIF</text>
	<rect x="72.915" y="28.583" fill="none" width="27" height="12.333"/>
	<text transform="matrix(1 0 0 1 79.9121 35.0449)" font-family="'Helvetica'" font-size="9">LIF</text>
	<rect x="287.915" y="119.25" fill="none" width="27" height="12.333"/>
	<text transform="matrix(1 0 0 1 294.9121 125.7114)" font-family="'Helvetica'" font-size="9">LIF</text>
	<rect x="22.915" y="171.916" fill="none" width="27" height="12.334"/>
	<text transform="matrix(1 0 0 1 29.9121 178.3784)" font-family="'Helvetica'" font-size="9">LIF</text>
	<rect x="74.915" y="171.916" fill="none" width="27" height="12.334"/>
	<text transform="matrix(1 0 0 1 81.9121 178.3784)" font-family="'Helvetica'" font-size="9">LIF</text>
	<rect x="135.582" y="28.583" fill="none" width="27" height="12.333"/>
	<text transform="matrix(1 0 0 1 142.5791 35.0449)" font-family="'Helvetica'" font-size="9">LIF</text>
	<rect x="185.581" y="28.583" fill="none" width="27" height="12.333"/>
	<text transform="matrix(1 0 0 1 192.5791 35.0449)" font-family="'Helvetica'" font-size="9">LIF</text>
	<rect x="237.247" y="28.583" fill="none" width="27" height="12.333"/>
	<text transform="matrix(1 0 0 1 244.2451 35.0449)" font-family="'Helvetica'" font-size="9">LIF</text>
	<rect x="288.247" y="28.583" fill="none" width="27" height="12.333"/>
	<text transform="matrix(1 0 0 1 295.2451 35.0449)" font-family="'Helvetica'" font-size="9">LIF</text>
	<rect x="47.249" y="118.917" fill="none" width="27" height="10.667"/>
	<text transform="matrix(1 0 0 1 52.4956 125.3794)" font-family="'Helvetica'" font-size="9">Port</text>
	<rect x="210.583" y="118.917" fill="none" width="27" height="10.667"/>
	<text transform="matrix(1 0 0 1 215.8291 125.3794)" font-family="'Helvetica'" font-size="9">Port</text>
	<rect x="21.916" y="309.25" fill="none" width="27" height="10.667"/>
	<text transform="matrix(1 0 0 1 27.1626 315.7124)" font-family="'Helvetica'" font-size="9">Port</text>
	<rect x="73.582" y="309.25" fill="none" width="27" height="10.667"/>
	<text transform="matrix(1 0 0 1 78.8291 315.7124)" font-family="'Helvetica'" font-size="9">Port</text>
	<rect x="184.415" y="309.25" fill="none" width="27" height="10.667"/>
	<text transform="matrix(1 0 0 1 189.6631 315.7124)" font-family="'Helvetica'" font-size="9">Port</text>
	<rect x="236.082" y="309.25" fill="none" width="27" height="10.667"/>
	<text transform="matrix(1 0 0 1 241.3291 315.7124)" font-family="'Helvetica'" font-size="9">Port</text>
	<rect x="186.249" y="73.584" fill="none" width="27" height="12.333"/>
	<text transform="matrix(1 0 0 1 187.9951 80.0464)" font-family="'Helvetica'" font-size="9">VLAN</text>
	<rect x="236.916" y="73.584" fill="none" width="27" height="12.333"/>
	<text transform="matrix(1 0 0 1 238.6621 80.0464)" font-family="'Helvetica'" font-size="9">VLAN</text>
	<rect x="287.915" y="261.75" fill="none" width="27" height="12.334"/>
	<text transform="matrix(1 0 0 1 294.9121 268.2114)" font-family="'Helvetica'" font-size="9">LIF</text>
	<rect x="135.582" y="171.083" fill="none" width="27" height="12.333"/>
	<text transform="matrix(1 0 0 1 142.5791 177.5444)" font-family="'Helvetica'" font-size="9">LIF</text>
	<rect x="185.581" y="171.083" fill="none" width="27" height="12.333"/>
	<text transform="matrix(1 0 0 1 192.5791 177.5444)" font-family="'Helvetica'" font-size="9">LIF</text>
	<rect x="237.247" y="171.083" fill="none" width="27" height="12.333"/>
	<text transform="matrix(1 0 0 1 244.2451 177.5444)" font-family="'Helvetica'" font-size="9">LIF</text>
	<rect x="288.247" y="171.083" fill="none" width="27" height="12.333"/>
	<text transform="matrix(1 0 0 1 295.2451 177.5444)" font-family="'Helvetica'" font-size="9">LIF</text>
	<rect x="186.249" y="216.084" fill="none" width="27" height="12.333"/>
	<text transform="matrix(1 0 0 1 187.9951 222.5464)" font-family="'Helvetica'" font-size="9">VLAN</text>
	<rect x="236.916" y="216.084" fill="none" width="27" height="12.333"/>
	<text transform="matrix(1 0 0 1 238.6621 222.5464)" font-family="'Helvetica'" font-size="9">VLAN</text>
	<rect x="43.665" y="259.167" fill="none" width="36.75" height="19.25"/>
	<text transform="matrix(1 0 0 1 46.4761 264.9116)"><tspan x="0" y="0" font-family="'Helvetica'" font-size="8">Interface </tspan><tspan x="5.336" y="9.6" font-family="'Helvetica'" font-size="8">group</tspan></text>
	<rect x="209.165" y="259.167" fill="none" width="36.75" height="19.25"/>
	<text transform="matrix(1 0 0 1 211.9756 264.9116)"><tspan x="0" y="0" font-family="'Helvetica'" font-size="8">Interface </tspan><tspan x="5.336" y="9.6" font-family="'Helvetica'" font-size="8">group</tspan></text>
</g>
</svg>